<svg data-v-0dd9719b="" version="1.0" xmlns="http://www.w3.org/2000/svg" xmlns:xlink="http://www.w3.org/1999/xlink" width="100%" height="100%" viewBox="0 0 340.000000 250.000000" preserveAspectRatio="xMidYMid meet" color-interpolation-filters="sRGB" style="margin: auto;"> <rect data-v-0dd9719b="" x="0" y="0" width="100%" height="100%" fill="#ffffff" fill-opacity="1" class="background"></rect> <rect data-v-0dd9719b="" x="0" y="0" width="100%" height="100%" fill="url(#watermark)" fill-opacity="1" class="watermarklayer"></rect> <g data-v-0dd9719b="" fill="#333333" class="icon-text-wrapper icon-svg-group iconsvg" transform="translate(48.86000061035156,95)"><g class="iconsvg-imagesvg" transform="translate(0,0)"><g><rect fill="#333333" fill-opacity="0" stroke-width="2" x="0" y="0" width="60" height="60" class="image-rect"></rect> <svg filter="url(#colors1288834879)" x="0" y="0" width="60" height="60" filtersec="colorsf7696271292" class="image-svg-svg primary" style="overflow: visible;"><svg fill="#000000" xmlns="http://www.w3.org/2000/svg" xmlns:xlink="http://www.w3.org/1999/xlink" version="1.0" x="0px" y="0px" viewBox="10 10 80 80" enable-background="new 0 0 100 100" xml:space="preserve"><path d="M50,10c-22.09,0-40,17.91-40,40c0,22.094,17.91,40,40,40c22.093,0,40-17.906,40-40C90,27.91,72.093,10,50,10z M50,83.334  c-18.411,0-33.333-14.922-33.333-33.334c0-18.408,14.922-33.333,33.333-33.333S83.333,31.592,83.333,50  C83.333,68.412,68.411,83.334,50,83.334z"></path><path d="M35.859,64.141c7.81,7.813,20.472,7.813,28.281,0c7.813-7.809,7.813-20.472,0-28.285l4.717-4.713  c10.413,10.414,10.413,27.301,0,37.715c-10.417,10.414-27.302,10.414-37.712,0L35.859,64.141z"></path></svg></svg> <defs><filter id="colors1288834879"><feColorMatrix type="matrix" values="0 0 0 0 0.19921875  0 0 0 0 0.19921875  0 0 0 0 0.19921875  0 0 0 1 0" class="icon-fecolormatrix"></feColorMatrix></filter> <filter id="colorsf7696271292"><feColorMatrix type="matrix" values="0 0 0 0 0.99609375  0 0 0 0 0.99609375  0 0 0 0 0.99609375  0 0 0 1 0" class="icon-fecolormatrix"></feColorMatrix></filter> <filter id="colorsb4730584159"><feColorMatrix type="matrix" values="0 0 0 0 0  0 0 0 0 0  0 0 0 0 0  0 0 0 1 0" class="icon-fecolormatrix"></feColorMatrix></filter></defs></g></g> <g transform="translate(67,1.7137489318847656)"><g data-gra="path-name" fill-rule="" class="tp-name iconsvg-namesvg" transform="translate(0,0)"><g transform="scale(1)"><g><path d="M40.37 3.69L40.37 3.69 21.82-17.01 11.56-17.01 11.56 0.58 23.89-2.56 24.66 0.27 10.48 3.92Q10.35 3.96 10.13 3.96L10.13 3.96Q9.54 3.96 9.18 3.65L9.18 3.65Q8.64 3.24 8.64 2.48L8.64 2.48 8.64-17.01 2.83-17.01 2.83-19.98 8.64-19.98 8.64-36.27 11.56-36.27 11.56-19.98 42.61-19.98 42.61-17.01 25.79-17.01 42.57 1.75 40.37 3.69ZM41.71-33.75L16.06-24.43 15.03-27.22 40.68-36.54 41.71-33.75ZM50.13 4.54L50.13 4.54 47.34 3.55 54.36-16.88 46.76-22.41 48.47-24.79 57.02-18.59Q57.38-18.31 57.53-17.86 57.69-17.41 57.51-16.92L57.51-16.92 50.13 4.54ZM58.41-29.61L56.61-27.27 47.25-34.42 49.05-36.81 58.41-29.61ZM74.52-36.18L74.52-7.11 71.55-7.11 71.55-36.18 74.52-36.18ZM63.54-34.56L60.93-7.88 58-8.19 60.62-34.88 63.54-34.56ZM88.11-13.23L85.19-12.87 82.53-34.52 85.45-34.88 88.11-13.23ZM87.84-8.82L57.87 4.81 56.66 2.11 86.58-11.52 87.84-8.82ZM108.77 3.87L108.77 3.87 95.17 3.87Q94.55 3.87 94.12 3.44 93.69 3.01 93.69 2.38L93.69 2.38 93.69-11.21Q93.69-11.83 94.12-12.26 94.55-12.69 95.17-12.69L95.17-12.69 100.48-12.69 100.48-16.25 93.02-16.25 93.02-19.21 100.48-19.21 100.48-22.99 93.64-22.99 93.64-25.96 110.34-25.96 110.34-22.99 103.45-22.99 103.45-19.21 110.97-19.21 110.97-16.25 103.45-16.25 103.45-12.69 108.77-12.69Q109.39-12.69 109.82-12.26 110.25-11.83 110.25-11.21L110.25-11.21 110.25 2.38Q110.25 3.01 109.82 3.44 109.39 3.87 108.77 3.87L108.77 3.87ZM122.31 3.87L122.31 3.87 114.08 3.87 114.08 0.9 120.83 0.9 120.83-18.68 111.56-18.68 111.56-21.6 116.33-21.6 113.53-29.2 116.33-30.2 119.47-21.6 124.02-21.6 127.84-32.49 111.64-32.49 111.64-35.41 129.96-35.41Q130.77-35.41 131.18-34.78L131.18-34.78Q131.58-34.24 131.35-33.48L131.35-33.48 127.13-21.6 131.13-21.6Q131.89-21.6 132.34-21.02L132.34-21.02Q132.8-20.43 132.57-19.71L132.57-19.71 130.09-11.65 127.26-12.51 129.15-18.68 123.8-18.68 123.8 2.38Q123.8 3.01 123.37 3.44 122.94 3.87 122.31 3.87L122.31 3.87ZM108.81-26.1L108.81-26.1 106.47-33.21 97.47-33.21 95.13-26.1 92.34-27.04 95-35.19Q95.36-36.18 96.44-36.18L96.44-36.18 107.55-36.18Q108.59-36.18 108.94-35.19L108.94-35.19 111.6-27.04 108.81-26.1ZM96.66-9.76L96.66 0.9 107.28 0.9 107.28-9.76 96.66-9.76ZM177.75-22.14L177.75-19.17 170.91-19.17 178.11 3.01 175.32 3.92 167.81-19.17 159.03-19.17 159.03 3.92 156.06 3.92 156.06-19.17 147.24-19.17 139.77 3.92 136.94 3.01 144.13-19.17 137.29-19.17 137.29-22.14 156.06-22.14 156.06-36.27 159.03-36.27 159.03-22.14 165.69-22.14 171.72-35.73 174.42-34.52 168.93-22.14 177.75-22.14ZM147.6-24.21L144.85-23.22 140.67-34.6 143.41-35.64 147.6-24.21Z" transform="translate(-2.8299999237060547, 36.810001373291016)"></path></g> <!----> <!----> <!----> <!----> <!----> <!----> <!----></g></g> <g data-gra="path-slogan" fill-rule="" class="tp-slogan iconsvg-slogansvg" fill="#79b652" transform="translate(5,47.62000274658203)"><rect x="0" height="1" y="3.9750003814697266" width="25.664997100830078"></rect> <rect height="1" y="3.9750003814697266" width="25.664997100830078" x="139.6150016784668"></rect> <g transform="translate(28.664997100830078,0)"><g transform="scale(1)"><path d="M8.06-6.05L8.06-6.05L6.94-6.05Q6.52-7.78 4.55-7.83L4.55-7.83Q1.83-7.69 1.73-4.36L1.73-4.36Q1.73-0.80 4.59-0.80L4.59-0.80Q6.56-0.84 7.03-3.19L7.03-3.19L8.16-3.19Q7.64 0.05 4.36 0.14L4.36 0.14Q0.61 0 0.52-4.31L0.52-4.31Q0.70-8.63 4.55-8.81L4.55-8.81Q7.59-8.72 8.06-6.05ZM10.69-5.06L15.19-5.06L15.19-8.58L16.36-8.58L16.36 0L15.19 0L15.19-3.98L10.69-3.98L10.69 0L9.52 0L9.52-8.58L10.69-8.58L10.69-5.06ZM23.81 0L22.97-2.48L19.50-2.48L18.61 0L17.44 0L20.67-8.58L21.98-8.58L25.08 0L23.81 0ZM21.23-7.31L19.88-3.52L22.55-3.52L21.28-7.31L21.23-7.31ZM27.52-8.58L31.83-1.64L31.83-8.58L32.95-8.58L32.95 0L31.64 0L27.28-6.94L27.23-6.94L27.23 0L26.11 0L26.11-8.58L27.52-8.58ZM41.16-3.61L38.53-3.61L38.53-4.59L42.28-4.59L42.28 0L41.53 0L41.25-1.08Q40.27 0.09 38.44 0.14L38.44 0.14Q36.70 0.14 35.77-0.75L35.77-0.75Q34.36-2.06 34.41-4.36L34.41-4.36Q34.73-8.63 38.48-8.81L38.48-8.81Q41.67-8.63 42.14-6L42.14-6L41.02-6Q40.55-7.78 38.44-7.83L38.44-7.83Q35.77-7.64 35.63-4.31L35.63-4.31Q35.63-0.75 38.48-0.75L38.48-0.75Q39.52-0.75 40.27-1.31L40.27-1.31Q41.20-2.06 41.16-3.61L41.16-3.61ZM50.34-6.09L50.34-6.09L49.27-6.09Q49.17-7.73 47.11-7.83L47.11-7.83Q45.19-7.78 45.19-6.33L45.19-6.33Q45.19-5.39 46.22-5.25L46.22-5.25L48.66-4.69Q50.58-4.22 50.58-2.34L50.58-2.34Q50.53 0.05 47.20 0.14L47.20 0.14Q45.38 0.14 44.63-0.61L44.63-0.61Q43.69-1.31 43.73-2.77L43.73-2.77L44.86-2.77Q44.91-0.80 47.20-0.75L47.20-0.75Q49.45-0.80 49.50-2.20L49.50-2.20Q49.69-3.38 47.63-3.75L47.63-3.75L45.84-4.13Q44.02-4.64 44.02-6.19L44.02-6.19Q44.16-8.72 47.02-8.81L47.02-8.81Q50.25-8.81 50.34-6.09ZM53.20-5.06L57.70-5.06L57.70-8.58L58.88-8.58L58.88 0L57.70 0L57.70-3.98L53.20-3.98L53.20 0L52.03 0L52.03-8.58L53.20-8.58L53.20-5.06ZM66.33 0L65.48-2.48L62.02-2.48L61.13 0L59.95 0L63.19-8.58L64.50-8.58L67.59 0L66.33 0ZM63.75-7.31L62.39-3.52L65.06-3.52L63.80-7.31L63.75-7.31ZM78.23-6.09L78.23-6.09L77.16-6.09Q77.06-7.73 75-7.83L75-7.83Q73.08-7.78 73.08-6.33L73.08-6.33Q73.08-5.39 74.11-5.25L74.11-5.25L76.55-4.69Q78.47-4.22 78.47-2.34L78.47-2.34Q78.42 0.05 75.09 0.14L75.09 0.14Q73.27 0.14 72.52-0.61L72.52-0.61Q71.58-1.31 71.63-2.77L71.63-2.77L72.75-2.77Q72.80-0.80 75.09-0.75L75.09-0.75Q77.34-0.80 77.39-2.20L77.39-2.20Q77.58-3.38 75.52-3.75L75.52-3.75L73.73-4.13Q71.91-4.64 71.91-6.19L71.91-6.19Q72.05-8.72 74.91-8.81L74.91-8.81Q78.14-8.81 78.23-6.09ZM81.09-5.06L85.59-5.06L85.59-8.58L86.77-8.58L86.77 0L85.59 0L85.59-3.98L81.09-3.98L81.09 0L79.92 0L79.92-8.58L81.09-8.58L81.09-5.06ZM94.22-3.19L94.22-8.58L95.39-8.58L95.39-3.05Q95.25 0.05 91.88 0.14L91.88 0.14Q88.73 0.05 88.59-2.86L88.59-2.86L88.59-8.58L89.77-8.58L89.77-3.19Q89.81-0.84 91.92-0.80L91.92-0.80Q94.22-0.84 94.22-3.19L94.22-3.19ZM105.42-8.58L105.42 0L104.30 0L104.30-5.06Q104.30-5.77 104.30-7.22L104.30-7.22L101.86 0L100.69 0L98.30-7.22L98.25-7.22Q98.25-6.70 98.30-5.67L98.30-5.67Q98.30-5.16 98.30-5.06L98.30-5.06L98.30 0L97.13 0L97.13-8.58L98.81-8.58L101.30-1.31L103.73-8.58L105.42-8.58ZM107.30-8.58L108.47-8.58L108.47 0L107.30 0L107.30-8.58Z" transform="translate(-0.515625, 8.8125)"></path></g></g></g></g></g><defs v-gra="od"></defs></svg>